<svg xmlns="http://www.w3.org/2000/svg" viewBox="0 0 72 72">
  <defs>
    <clipPath id="bn-circle">
      <circle cx="36" cy="36" r="36"/>
    </clipPath>
  </defs>
  <g clip-path="url(#bn-circle)">
    <rect width="72" height="72" fill="#f7e017"/>
    <polygon points="-8,46 80,14 80,24 -8,56" fill="#fff"/>
    <polygon points="-8,50 80,18 80,22 -8,54" fill="#111"/>
    <g fill="#cf1126" transform="translate(36 38)">
      <path d="M-10 4c2.5-4 6-6 10-6s7.5 2 10 6c-3 3.8-6.3 5.7-10 5.7S-7 7.8-10 4z"/>
      <path d="M-2-3h4v14h-4z"/>
      <path d="M-12 0h6v3h-6z"/>
      <path d="M6 0h6v3H6z"/>
      <circle cx="-10" cy="-1.5" r="1.3"/>
      <circle cx="10" cy="-1.5" r="1.3"/>
    </g>
  </g>
</svg>
