<svg xmlns="http://www.w3.org/2000/svg" viewBox="0 0 72 72">
  <rect width="72" height="72" rx="36" fill="#fff"/>
  <g transform="translate(36 36)">
    <path d="M0-13a13 13 0 0 1 0 26 13 13 0 0 1 0-26z" fill="#cd2e3a"/>
    <path d="M0 13a13 13 0 0 0 0-26 6.5 6.5 0 0 1 0 13 6.5 6.5 0 0 0 0 13z" fill="#0047a0"/>
  </g>
  <g fill="#111">
    <g transform="translate(14 18) rotate(-35)">
      <rect x="-8" y="-5" width="16" height="2.4" rx="1.2"/>
      <rect x="-8" y="-1.2" width="16" height="2.4" rx="1.2"/>
      <rect x="-8" y="2.6" width="16" height="2.4" rx="1.2"/>
    </g>
    <g transform="translate(58 54) rotate(-35)">
      <rect x="-8" y="-5" width="16" height="2.4" rx="1.2"/>
      <rect x="-8" y="-1.2" width="16" height="2.4" rx="1.2"/>
      <rect x="-8" y="2.6" width="16" height="2.4" rx="1.2"/>
    </g>
    <g transform="translate(58 18) rotate(35)">
      <rect x="-8" y="-5" width="16" height="2.4" rx="1.2"/>
      <rect x="-8" y="2.6" width="16" height="2.4" rx="1.2"/>
      <rect x="-8" y="-1.2" width="7" height="2.4" rx="1.2"/>
      <rect x="1" y="-1.2" width="7" height="2.4" rx="1.2"/>
    </g>
    <g transform="translate(14 54) rotate(35)">
      <rect x="-8" y="-5" width="7" height="2.4" rx="1.2"/>
      <rect x="1" y="-5" width="7" height="2.4" rx="1.2"/>
      <rect x="-8" y="2.6" width="7" height="2.4" rx="1.2"/>
      <rect x="1" y="2.6" width="7" height="2.4" rx="1.2"/>
      <rect x="-8" y="-1.2" width="16" height="2.4" rx="1.2"/>
    </g>
  </g>
</svg>
